<?xml version="1.0" standalone="no"?>
<!DOCTYPE svg PUBLIC "-//W3C//DTD SVG 1.1//EN" "http://www.w3.org/Graphics/SVG/1.1/DTD/svg11.dtd" >
<svg xmlns="http://www.w3.org/2000/svg">
<metadata>Generated by IcoMoon</metadata>
<defs>
<font id="icomoon" horiz-adv-x="1024">
<font-face units-per-em="1024" ascent="960" descent="-64" />
<missing-glyph horiz-adv-x="1024" />
<glyph unicode="&#x20;" horiz-adv-x="512" d="" />
<glyph unicode="&#xe600;" glyph-name="back" d="M954.573 463.343h-862.669l427.571 427.605-12.083 12.066-447.13-447.164 3.516-3.533-0.939-0.956 458.359-458.377 12.066 12.066-441.225 441.225h862.532z" />
<glyph unicode="&#xe601;" glyph-name="ciycle" d="M514.167-10.65c-252.911 0-458.667 205.756-458.667 458.667 0 252.894 205.756 458.633 458.667 458.633 252.894 0 458.633-205.739 458.633-458.633 0-252.911-205.739-458.667-458.633-458.667zM514.167 889.583c-243.507 0-441.6-198.076-441.6-441.566 0-243.507 198.093-441.6 441.6-441.6 243.49 0 441.566 198.093 441.566 441.6 0 243.49-198.076 441.566-441.566 441.566z" />
<glyph unicode="&#xe602;" glyph-name="cloud" d="M838.571 311.979c0 52.395-13.687 100.352-38.281 134.707-44.681 67.823-123.204 104.892-201.574 95.317-33.877 92.501-121.446 153.993-220.672 153.993-129.365 0-234.65-104.994-235.059-234.24-75.179-25.293-127.027-96.734-127.027-176.555 0-83.61 56.371-157.457 135.902-179.166 11.947-4.83 24.047-7.236 35.977-7.236h516.352c74.103 0 134.366 83.371 134.366 185.822v27.358zM817.357 284.604c0-89.225-51.814-164.608-113.152-164.608h-516.352c-9.199 0-18.637 1.911-29.218 6.11-71.492 19.593-121.446 85.026-121.446 159.078 0 73.148 49.135 138.377 119.501 158.583l7.885 4.267-0.375 12.902c0 117.914 95.932 213.811 213.845 213.811 92.979 0 174.746-59.392 203.401-147.814l2.85-8.687 9.028 1.485c9.984 1.673 20.241 2.509 30.43 2.509 63.437 0 122.795-32.614 159.044-87.62 22.289-31.095 34.543-74.684 34.543-122.675v-27.341zM969.353 563.285c-44.698 67.806-123.221 104.892-201.574 95.317-33.877 92.501-121.446 153.993-220.672 153.993-71.834 0-136.158-32.444-179.302-83.371l23.552-5.632c39.031 41.591 94.345 67.772 155.75 67.772 92.979 0 174.746-59.392 203.401-147.814l2.85-8.687 9.028 1.485c10.001 1.673 20.241 2.526 30.43 2.526 63.454 0 122.795-32.614 159.044-87.637 22.289-31.095 34.543-74.667 34.543-122.675v-27.375c0-89.225-51.814-164.591-113.135-164.591h-7.322l-0.119-0.802-8.226-20.429h15.667c74.086 0 134.366 83.354 134.366 185.822v27.375c0 52.412-13.687 100.386-38.281 134.724z" />
<glyph unicode="&#xe603;" d="M959.659 456.192c0-247.235-200.424-447.659-447.659-447.659s-447.659 200.424-447.659 447.659c0 247.235 200.424 447.659 447.659 447.659s447.659-200.424 447.659-447.659z" />
<glyph unicode="&#xe604;" d="M442.846 341.845l288.085 346.573-83.405 69.342-288.102-346.573-62.157-153.481h-3.447v-17.067h360.226v17.067h-346.505z" />
<glyph unicode="&#xe605;" d="M1024.393 448c0 0-329.199-270.285-512.239-270.285-183.091 0.017-512.273 270.285-512.273 270.285s329.182 270.268 512.29 270.268c183.023 0 512.222-270.268 512.222-270.268z" />
<glyph unicode="&#xe606;" d="M512.171 657.408c-115.49 0-209.425-93.918-209.425-209.391 0-115.507 93.935-209.425 209.425-209.425 115.456 0 209.391 93.935 209.391 209.425-0.017 115.473-93.952 209.391-209.391 209.391zM512.171 272.367c-96.836 0-175.65 78.797-175.65 175.65 0 96.836 78.814 175.633 175.65 175.633 96.819 0 175.599-78.797 175.599-175.633 0-96.853-78.78-175.65-175.599-175.65z" />
<glyph unicode="&#xe607;" glyph-name="fullscreen" d="M481.655 733.747v17.067h-266.974v-7.031h-5.495v-273.681h17.067v251.546l249.037-249.054 12.066 12.066-249.071 249.088zM814.814 417.673h-17.067l-0.034-243.388-249.088 249.105-12.083-12.066 249.071-249.054-251.529-0.017v-17.067l273.664 0.017v5.495h7.031z" />
<glyph unicode="&#xe608;" glyph-name="home" d="M450.731 838.195h-315.648c-8.738 0-15.787-7.066-15.787-15.804v-315.665c0-8.704 7.049-15.77 15.787-15.77h315.648c8.738 0 15.77 7.066 15.77 15.77v315.682c0 8.721-7.031 15.787-15.77 15.787zM892.655 838.195h-315.648c-8.721 0-15.804-7.066-15.804-15.804v-315.665c0-8.704 7.083-15.77 15.804-15.77h315.648c8.738 0 15.804 7.066 15.804 15.77v315.682c-0.017 8.721-7.083 15.787-15.804 15.787zM450.731 404.992h-315.648c-8.738 0-15.787-7.031-15.787-15.77v-315.665c0-8.738 7.049-15.77 15.787-15.77h315.648c8.738 0 15.77 7.031 15.77 15.77v315.682c0 8.721-7.031 15.753-15.77 15.753zM892.655 404.992h-315.648c-8.721 0-15.804-7.031-15.804-15.77v-315.665c0-8.738 7.083-15.77 15.804-15.77h315.648c8.738 0 15.804 7.031 15.804 15.77v315.682c-0.017 8.721-7.083 15.753-15.804 15.753z" />
<glyph unicode="&#xe609;" d="M962.355 448c0-247.376-200.538-447.915-447.915-447.915s-447.915 200.538-447.915 447.915c0 247.376 200.538 447.915 447.915 447.915s447.915-200.538 447.915-447.915z" />
<glyph unicode="&#xe60a;" d="M499.183 339.115h30.532c6.315 0 11.418 3.823 11.418 8.482l11.401 283.529c0 4.676-5.12 8.482-11.401 8.482h-53.367c-6.281 0-11.418-3.806-11.418-8.482l11.418-283.529c-0.017-4.659 5.12-8.482 11.418-8.482z" />
<glyph unicode="&#xe60b;" d="M541.833 283.767c0-15.128-12.264-27.392-27.392-27.392s-27.392 12.264-27.392 27.392c0 15.128 12.264 27.392 27.392 27.392s27.392-12.264 27.392-27.392z" />
<glyph unicode="&#xe60c;" glyph-name="live" d="M943.65 759.825h-844.885c-19.268 0-34.935-15.667-34.935-34.935v-553.745c0-19.285 15.667-34.953 34.935-34.953h844.885c19.268 0 34.953 15.667 34.953 34.953v553.745c0 19.268-15.667 34.935-34.953 34.935zM961.536 171.127c0-9.865-8.021-17.886-17.886-17.886h-844.885c-9.865 0-17.869 8.021-17.869 17.886v553.762c0 9.847 8.021 17.869 17.869 17.869h844.885c9.865 0 17.886-8.021 17.886-17.869v-553.762zM231.219 570.812h-25.156v-247.467h120.286v23.791h-95.13zM361.847 570.812h24.815v-247.467h-24.815v247.467zM533.47 373.316l-82.022 197.495h-26.88l106.155-253.662h5.171l107.878 253.662h-26.88zM685.466 323.345h140.954v24.474h-116.139v97.195h116.139v24.115h-116.139v77.21h117.18v24.474h-141.995z" />
<glyph unicode="&#xe60d;" d="M813.5 611.567h-44.066v109.858c0 108.22-88.047 196.267-196.267 196.267h-122.334c-108.22 0-196.267-88.047-196.267-196.267v-109.858h-44.066c-37.7 0-68.267-30.566-68.267-68.267v-455.117c0-37.7 30.566-68.267 68.267-68.267h602.999c37.7 0 68.267 30.566 68.267 68.267v455.117c0 37.7-30.566 68.267-68.267 68.267zM271.633 721.425c0 98.816 80.384 179.2 179.2 179.2h122.334c98.816 0 179.2-80.384 179.2-179.2v-109.858h-480.734v109.858z" />
<glyph unicode="&#xe60e;" d="M512 404.634c-49.015 0-88.9-39.868-88.9-88.883s39.885-88.883 88.9-88.883 88.9 39.868 88.9 88.883-39.885 88.883-88.9 88.883zM512 243.917c-39.612 0-71.834 32.222-71.834 71.817s32.222 71.817 71.834 71.817 71.834-32.222 71.834-71.817-32.222-71.817-71.834-71.817z" />
<glyph unicode="&#xe60f;" d="M1021.15 448c0-281.196-227.954-509.15-509.15-509.15s-509.15 227.954-509.15 509.15c0 281.196 227.954 509.15 509.15 509.15s509.15-227.954 509.15-509.15z" />
<glyph unicode="&#xe610;" d="M666.897 591.923c0-86.169-69.35-156.023-154.897-156.023s-154.897 69.854-154.897 156.023c0 86.169 69.35 156.023 154.897 156.023s154.897-69.854 154.897-156.023z" />
<glyph unicode="&#xe611;" d="M512 376.678c-152.883 0-276.941-157.696-280.218-353.741 80.384-53.094 176.674-84.105 280.218-84.105s199.834 30.993 280.218 84.105c-3.277 196.045-127.334 353.741-280.218 353.741z" />
<glyph unicode="&#xe612;" glyph-name="more" d="M664.201 459.81l-307.712 308.156-12.066-12.066 307.712-308.156-307.712-307.644 12.066-12.066 319.778 319.71z" />
<glyph unicode="&#xe613;" glyph-name="ok" d="M457.54 334.182l-141.875 141.858-12.066-12.066 152.183-152.166 5.99 5.99 1.707-1.724 259.157 256.017-11.998 12.134zM513.143 906.633c-252.911 0-458.667-205.739-458.667-458.633s205.756-458.633 458.667-458.633c252.894 0 458.633 205.739 458.633 458.633s-205.739 458.633-458.633 458.633zM513.143 6.434c-243.507 0-441.6 198.076-441.6 441.566s198.093 441.566 441.6 441.566c243.473 0 441.566-198.076 441.566-441.566s-198.093-441.566-441.566-441.566z" />
<glyph unicode="&#xe614;" d="M956.672 448c0-247.942-200.997-448.939-448.939-448.939s-448.939 200.997-448.939 448.939c0 247.942 200.997 448.939 448.939 448.939s448.939-200.997 448.939-448.939z" />
<glyph unicode="&#xe615;" d="M507.716-8.516c-251.716 0-456.516 204.783-456.516 456.516 0 251.716 204.8 456.516 456.516 456.516 251.733 0 456.533-204.8 456.533-456.516 0-251.733-204.8-456.516-456.533-456.516zM507.716 889.361c-243.371 0-441.361-197.99-441.361-441.361s198.007-441.361 441.361-441.361c243.388 0 441.378 197.99 441.378 441.361s-197.99 441.361-441.378 441.361z" />
<glyph unicode="&#xe616;" d="M419.396 648.789h30.31v-401.562h-30.31v401.562z" />
<glyph unicode="&#xe617;" d="M565.709 648.789h30.31v-401.562h-30.31v401.562z" />
<glyph unicode="&#xe618;" d="M956.672 448c0-247.942-200.997-448.939-448.939-448.939s-448.939 200.997-448.939 448.939c0 247.942 200.997 448.939 448.939 448.939s448.939-200.997 448.939-448.939z" />
<glyph unicode="&#xe619;" d="M507.716-8.516c-251.716 0-456.516 204.783-456.516 456.516 0 251.716 204.8 456.516 456.516 456.516 251.733 0 456.533-204.8 456.533-456.516 0-251.733-204.8-456.516-456.533-456.516zM507.716 889.361c-243.371 0-441.361-197.99-441.361-441.361s198.007-441.361 441.361-441.361c243.388 0 441.378 197.99 441.378 441.361s-197.99 441.361-441.378 441.361z" />
<glyph unicode="&#xe61a;" d="M412.348 646.349v-396.698l224.905 198.349z" />
<glyph unicode="&#xe61b;" glyph-name="plus" d="M514.202 905.318c-252.16 0-457.318-205.158-457.318-457.318s205.158-457.318 457.318-457.318 457.318 205.158 457.318 457.318-205.158 457.318-457.318 457.318zM514.202 7.748c-242.756 0-440.252 197.495-440.252 440.252 0 242.773 197.495 440.252 440.252 440.252s440.252-197.478 440.252-440.252c0-242.756-197.495-440.252-440.252-440.252zM522.735 718.404h-17.067v-261.871h-261.871v-17.067h261.871v-261.871h17.067v261.871h261.871v17.067h-261.871z" />
<glyph unicode="&#xe61c;" glyph-name="search" d="M515.738 905.95c-252.535 0-457.967-205.431-457.967-457.95s205.449-457.95 457.967-457.95c252.501 0 457.95 205.431 457.95 457.95s-205.449 457.95-457.95 457.95zM515.738 7.117c-243.115 0-440.9 197.786-440.9 440.883s197.786 440.883 440.9 440.883c243.098 0 440.883-197.786 440.883-440.883s-197.786-440.883-440.883-440.883zM493.653 674.167c-106.957 0-193.963-87.023-193.963-193.963s87.006-193.963 193.963-193.963c106.957 0 193.98 87.023 193.98 193.963s-87.023 193.963-193.98 193.963zM493.653 303.292c-97.536 0-176.896 79.36-176.896 176.896 0 97.553 79.343 176.896 176.896 176.896s176.913-79.343 176.913-176.896c0-97.519-79.36-176.896-176.913-176.896zM716.921 224.622l-79.145 87.312 12.645 11.462 79.145-87.312-12.645-11.462z" />
<glyph unicode="&#xe61d;" glyph-name="sound" d="M782.865 793.037l-12.066-12.066c183.569-183.62 183.569-482.355 0-665.941l12.066-12.066c190.225 190.242 190.225 499.797 0 690.074zM657.118 639.573c51.234-51.2 79.445-119.245 79.445-191.573s-28.211-140.373-79.445-191.59l12.066-12.066c54.46 54.443 84.446 126.771 84.446 203.657 0 76.902-29.986 149.214-84.446 203.639l-12.066-12.066zM501.641 772.54h-2.27l-217.327-124.126h-78.729c-42.035 0-76.254-34.219-76.254-76.271v-248.269c0-42.052 34.202-76.271 76.254-76.271h73.301l222.822-124.126h2.219c42.035 0 76.254 34.202 76.254 76.237v496.589c-0.034 42.035-34.236 76.237-76.271 76.237zM560.811 199.697c0-31.915-25.395-57.993-57.037-59.119l-222.754 124.092h-77.739c-32.631 0-59.187 26.556-59.187 59.204v248.252c0 32.649 26.556 59.204 59.187 59.204h83.268l217.259 124.092c31.625-1.161 56.986-27.238 56.986-59.119v-496.606z" />
<glyph unicode="&#xe61e;" glyph-name="Squareokbig" d="M888.559 869.581h-753.084c-25.429 0-46.114-20.685-46.114-46.114v-751.002c0-25.378 20.685-46.046 46.114-46.046h753.084c25.395 0 46.063 20.651 46.063 46.046v751.002c0.017 25.429-20.651 46.114-46.063 46.114zM137.609 43.486c-16.009 0-29.047 13.005-29.047 28.979v751.002c0 16.009 13.039 29.047 29.047 29.047h748.817c15.991 0 28.996-13.039 28.996-29.047v-751.002c0-15.974-13.022-28.979-28.996-28.979h-748.817zM426.172 263.407l-225.024 225.007-12.066-12.066 237.773-237.756 410.163 406.716-11.998 12.117z" />
<glyph unicode="&#xe61f;" glyph-name="Squareok" d="M762.419 731.989h-500.804c-18.534 0-33.604-15.070-33.604-33.604v-500.838c0-18.5 15.070-33.553 33.604-33.553h500.804c18.517 0 33.57 15.053 33.57 33.553v500.838c0 18.534-15.053 33.604-33.57 33.604zM778.923 197.564c0-9.097-7.407-16.486-16.503-16.486h-500.804c-9.114 0-16.538 7.39-16.538 16.486v500.821c0 9.114 7.424 16.538 16.538 16.538h500.804c9.097 0 16.503-7.424 16.503-16.538v-500.821zM456.38 334.182l-141.841 141.858-12.066-12.066 153.702-153.924 6.007 5.99 0.154 0.034 259.157 256.017-11.998 12.134z" />
<glyph unicode="&#xe620;" glyph-name="Squarebig" d="M887.501 26.419h-750.95c-25.429 0-46.114 20.651-46.114 46.046v751.002c0 25.429 20.685 46.114 46.114 46.114h750.95c25.395 0 46.063-20.685 46.063-46.114v-751.002c0-25.395-20.668-46.046-46.063-46.046zM136.55 852.514c-16.026 0-29.047-13.039-29.047-29.047v-751.002c0-15.974 13.039-28.979 29.047-28.979h750.95c15.991 0 28.996 13.005 28.996 28.979v751.002c0 16.009-13.022 29.047-28.996 29.047h-750.95z" />
<glyph unicode="&#xe621;" glyph-name="Square" d="M762.419 164.011h-500.804c-18.534 0-33.604 15.053-33.604 33.553v500.821c0 18.517 15.070 33.604 33.604 33.604h500.804c18.517 0 33.57-15.070 33.57-33.604v-500.838c0-18.483-15.053-33.536-33.57-33.536zM261.615 714.923c-9.114 0-16.538-7.424-16.538-16.538v-500.838c0-9.097 7.424-16.486 16.538-16.486h500.804c9.097 0 16.503 7.39 16.503 16.486v500.838c0 9.114-7.407 16.538-16.503 16.538h-500.804z" />
<glyph unicode="&#xe622;" glyph-name="time" d="M558.217 405.914v265.062h-17.067v-265.062h-271.872v-17.067h288.939zM549.683 906.65v0-17.067c243.473 0 441.566-198.076 441.566-441.566s-198.093-441.583-441.566-441.583c-222.003-0.017-406.067 164.745-436.873 378.368h70.434l-83.763 139.486-83.797-139.486h79.906c30.908-223.078 222.669-395.452 454.093-395.452 252.894 0 458.633 205.756 458.633 458.65s-205.739 458.65-458.633 458.65z" />
<glyph unicode="&#xe623;" glyph-name="up" d="M748.766 389.683l-235.503 219.324-240.657-224.137v-60.587h481.707v56.866l-0.358 8.533h-5.188zM737.229 341.35h-447.556v36.079l223.607 208.265 223.966-208.606v-35.738zM513.468 906.65c-252.894 0-458.633-205.739-458.633-458.633 0-252.911 205.739-458.667 458.633-458.667 252.86 0 458.633 205.756 458.633 458.667 0 252.894-205.773 458.633-458.633 458.633zM513.468 6.417c-243.507 0-441.566 198.093-441.566 441.6 0 243.49 198.059 441.566 441.566 441.566 243.473 0 441.566-198.076 441.566-441.566 0-243.507-198.093-441.6-441.566-441.6z" />
<glyph unicode="&#xe624;" d="M958.174 448c0-247.329-200.5-447.829-447.829-447.829s-447.829 200.5-447.829 447.829c0 247.329 200.5 447.829 447.829 447.829s447.829-200.5 447.829-447.829z" />
<glyph unicode="&#xe625;" d="M510.31 667.614l-284.757-246.63h181.982v-192.597h205.619v192.597h181.931z" />
<glyph unicode="&#xe626;" glyph-name="user" d="M511.966 398.421c121.958 0 221.167 99.209 221.167 221.15 0 121.958-99.191 221.167-221.167 221.167-121.941 0-221.133-99.209-221.133-221.167 0-121.941 99.209-221.15 221.133-221.15zM511.966 822.306c111.804 0 202.735-90.948 202.735-202.735s-90.931-202.718-202.735-202.718c-111.77 0-202.701 90.931-202.701 202.718s90.931 202.735 202.701 202.735zM512 350.157c-221.867 0-402.33-128.154-402.33-285.662v-9.216h804.659v9.216c0 157.508-180.463 285.662-402.33 285.662zM128.307 73.694c7.031 143.104 176.452 258.031 383.693 258.031s376.661-114.91 383.659-258.014h-767.351z" />
<glyph unicode="&#xe627;" glyph-name="wifi" d="M68.25 585.591l14.831-14.814c236.493 236.51 621.329 236.476 857.856 0l14.814 14.814c-244.651 244.651-642.816 244.685-887.501 0zM189.679 456.516l14.814-14.831c169.557 169.523 445.423 169.54 614.963 0l14.814 14.831c-177.681 177.715-466.842 177.698-644.591 0zM321.007 350.925l14.831-14.831c47.070 47.087 109.653 73.045 176.145 73.045 66.526 0 129.092-25.958 176.196-73.045l14.814 14.831c-51.063 51.046-118.903 79.189-191.010 79.189s-139.93-28.126-190.976-79.189zM512 296.038c-46.609 0-84.548-37.939-84.548-84.565s37.939-84.565 84.548-84.565c46.626 0 84.582 37.939 84.582 84.565s-37.956 84.565-84.582 84.565zM512 147.883c-35.089 0-63.607 28.535-63.607 63.607 0 35.055 28.518 63.607 63.607 63.607s63.607-28.535 63.607-63.607c0-35.089-28.518-63.607-63.607-63.607z" />
<glyph unicode="&#xe800;" glyph-name="computer-28" d="M952.525 856.815h-881.050c-18.842 0-34.133-15.292-34.133-34.133v-663.467c0-18.842 15.292-34.133 34.133-34.133h351.966l-36.915-102.4h-44.117c-6.485 0-11.742-5.257-11.742-11.742s5.257-11.742 11.742-11.742h339.2c6.485 0 11.742 5.257 11.742 11.742s-5.257 11.742-11.742 11.742h-44.117l-36.915 102.4h351.966c18.842 0 34.133 15.292 34.133 34.133v663.467c-0.017 18.842-15.292 34.133-34.15 34.133zM476.809 198.673c0 19.439 15.77 35.191 35.191 35.191s35.191-15.753 35.191-35.191-15.753-35.191-35.191-35.191-35.191 15.753-35.191 35.191zM912.009 268.015h-800.017v509.867h800v-509.867z" />
<glyph unicode="&#xe801;" glyph-name="menu" d="M230.042 834.065c-61.747 0-111.991-50.227-111.991-111.974s50.227-111.974 111.991-111.974c61.73 0 111.974 50.227 111.974 111.974s-50.244 111.974-111.974 111.974zM230.042 661.316c-33.519 0-60.791 27.273-60.791 60.774s27.273 60.774 60.791 60.774c33.502 0 60.774-27.273 60.774-60.774s-27.29-60.774-60.774-60.774zM442.3 754.091h438.050v-64h-438.050v64zM230.042 576.631c-61.747 0-111.991-50.227-111.991-111.974s50.227-111.974 111.991-111.974c61.73 0 111.974 50.227 111.974 111.974s-50.244 111.974-111.974 111.974zM230.042 403.883c-33.519 0-60.791 27.273-60.791 60.774s27.273 60.774 60.791 60.774c33.502 0 60.774-27.273 60.774-60.774s-27.29-60.774-60.774-60.774zM442.3 496.657h438.050v-64h-438.050v64zM230.042 319.215c-61.747 0-111.991-50.227-111.991-111.974s50.227-111.974 111.991-111.974c61.73 0 111.974 50.227 111.974 111.974s-50.244 111.974-111.974 111.974zM230.042 146.466c-33.519 0-60.791 27.273-60.791 60.774s27.273 60.774 60.791 60.774c33.502 0 60.774-27.273 60.774-60.774s-27.29-60.774-60.774-60.774zM442.3 239.241h438.050v-64h-438.050v64z" />
</font>
</defs>
</svg>
